<?xml version="1.0" encoding="UTF-8"?>
<svg xmlns="http://www.w3.org/2000/svg" xmlns:xlink="http://www.w3.org/1999/xlink" width="128pt" height="64pt" viewBox="0 0 128 64" version="1.1">
<g id="surface1">
<rect x="0" y="0" width="128" height="64" style="fill:rgb(100%,100%,100%);fill-opacity:1;stroke:none;"/>
<path style=" stroke:none;fill-rule:nonzero;fill:rgb(73.699951%,2.69928%,10.998535%);fill-opacity:1;" d="M 56.324219 27.386719 C 55.074219 27.398438 53.824219 27.40625 52.523438 27.425781 C 52.414063 27.429688 52.304688 27.429688 52.207031 27.449219 C 51.484375 27.578125 51.328125 28.589844 51.15625 29.523438 C 50.335938 34.121094 49.265625 36.960938 48.59375 40.65625 C 48.378906 41.871094 48.199219 43.179688 48.585938 44.40625 C 48.734375 44.867188 48.972656 45.511719 49.585938 45.984375 C 50.210938 46.460938 52.5 46.5 52.5 46.5 C 52.5 46.5 54.1875 46.519531 55.007813 46.191406 C 55.523438 45.984375 55.949219 45.71875 56.203125 45.527344 C 57.003906 44.929688 57.996094 43.898438 58.0625 44.449219 C 58.078125 44.550781 58.058594 44.703125 58.042969 44.839844 C 58.015625 45.082031 57.992188 45.28125 57.972656 45.519531 C 57.949219 45.78125 57.925781 46.089844 58.078125 46.257813 C 58.175781 46.367188 58.355469 46.421875 58.523438 46.457031 C 59.070313 46.570313 59.542969 46.503906 60.105469 46.5 C 61.125 46.492188 62.445313 46.683594 62.9375 45.980469 C 63.128906 45.707031 63.195313 45.300781 63.253906 44.90625 C 63.378906 44.0625 63.46875 43.292969 63.59375 42.523438 C 63.921875 40.558594 64.515625 38.59375 65.09375 36.578125 C 65.472656 35.261719 65.847656 33.925781 66.664063 32.886719 C 67.253906 32.132813 68.078125 31.53125 69.109375 31.308594 C 69.925781 31.132813 70.875 31.195313 71.390625 31.691406 C 71.890625 32.171875 71.984375 33.054688 71.933594 33.863281 C 71.84375 35.40625 71.234375 36.65625 70.738281 37.988281 C 70.136719 39.617188 69.699219 41.371094 70 43.175781 C 70.222656 44.535156 70.871094 45.925781 71.984375 46.605469 C 73.054688 47.261719 74.5625 47.261719 75.792969 46.894531 C 76.910156 46.5625 77.800781 45.929688 78.78125 45.15625 C 79.117188 44.894531 79.460938 44.617188 79.546875 44.265625 C 79.714844 43.605469 78.976563 42.683594 78.21875 42.5 C 78.070313 42.464844 77.917969 42.460938 77.78125 42.492188 C 77.453125 42.582031 77.210938 42.917969 76.878906 43.039063 C 76.390625 43.21875 75.710938 42.929688 75.414063 42.496094 C 75.113281 42.058594 75.207031 41.476563 75.304688 40.921875 C 75.550781 39.507813 75.824219 38.257813 76.230469 37.011719 C 76.683594 35.597656 77.304688 34.191406 77.476563 32.628906 C 77.613281 31.371094 77.460938 30.011719 76.773438 29.03125 C 76.136719 28.125 75.050781 27.539063 73.886719 27.269531 C 72.226563 26.886719 70.410156 27.148438 69.09375 27.753906 C 68.820313 27.882813 68.570313 28.023438 68.28125 28.339844 C 67.824219 28.84375 67.269531 29.792969 67.207031 29.515625 C 67.1875 29.425781 67.21875 29.199219 67.242188 28.988281 C 67.289063 28.527344 67.289063 28.152344 67.078125 27.835938 C 67.003906 27.730469 66.910156 27.632813 66.804688 27.554688 C 66.273438 27.152344 65.546875 27.277344 64.796875 27.289063 C 64.011719 27.296875 63.191406 27.179688 62.683594 27.5 C 62.007813 27.925781 61.875 29.128906 61.699219 30.144531 C 61.539063 31.050781 61.347656 31.808594 61.152344 32.597656 C 60.839844 33.847656 60.511719 35.167969 60.230469 36.480469 C 60.023438 37.457031 59.839844 38.429688 59.449219 39.34375 C 58.941406 40.53125 58.085938 41.621094 56.992188 42.308594 C 56.472656 42.632813 55.902344 42.863281 55.253906 42.851563 C 54.660156 42.84375 54.003906 42.625 53.71875 42.207031 C 53.414063 41.746094 53.546875 41.050781 53.6875 40.398438 C 54.019531 38.84375 54.390625 37.574219 54.773438 36.210938 C 55.09375 35.054688 55.429688 33.835938 55.789063 32.699219 C 56.195313 31.40625 56.636719 30.222656 56.945313 28.71875 C 57.011719 28.390625 57.070313 28.046875 56.933594 27.8125 C 56.820313 27.621094 56.570313 27.503906 56.324219 27.386719 "/>
<path style=" stroke:none;fill-rule:nonzero;fill:rgb(73.699951%,2.69928%,10.998535%);fill-opacity:1;" d="M 88.550781 27.964844 C 88.160156 29.226563 87.773438 30.488281 87.40625 31.738281 C 86.542969 34.710938 85.824219 37.628906 85.285156 40.855469 C 85.113281 41.898438 84.957031 42.96875 85.285156 43.875 C 85.753906 45.164063 87.199219 46.113281 88.625 46.578125 C 90.144531 47.074219 91.640625 47.023438 93.1875 46.683594 C 94.097656 46.484375 95.023438 46.1875 95.625 45.570313 C 95.96875 45.226563 96.203125 44.777344 96.648438 44.460938 C 96.691406 44.429688 96.738281 44.398438 96.785156 44.398438 C 96.847656 44.402344 96.910156 44.453125 96.949219 44.515625 C 97.007813 44.609375 97 44.722656 97.007813 44.832031 C 97.027344 45.285156 97.300781 45.714844 97.652344 46.003906 C 97.882813 46.195313 98.144531 46.328125 98.414063 46.429688 C 99.773438 46.953125 101.324219 46.765625 102.804688 46.429688 C 103.925781 46.175781 105.007813 45.839844 105.925781 45.25 C 106.515625 44.871094 107.039063 44.386719 107.515625 43.808594 C 107.773438 43.492188 108.015625 43.148438 108.0625 42.777344 C 108.089844 42.578125 108.058594 42.371094 107.996094 42.15625 C 107.816406 41.542969 107.359375 40.871094 106.78125 40.863281 C 106.621094 40.859375 106.449219 40.910156 106.304688 40.988281 C 105.960938 41.171875 105.753906 41.507813 105.507813 41.824219 C 105.074219 42.382813 104.523438 42.878906 103.835938 42.972656 C 103.289063 43.046875 102.65625 42.863281 102.289063 42.511719 C 101.59375 41.847656 101.863281 40.574219 102.121094 39.445313 C 102.535156 37.660156 102.925781 36.226563 103.394531 34.765625 C 103.75 33.65625 104.152344 32.53125 104.460938 31.242188 C 104.476563 31.183594 104.488281 31.128906 104.519531 31.089844 C 104.574219 31.027344 104.683594 31.019531 104.789063 31.015625 C 105.941406 30.96875 106.761719 30.953125 107.820313 31.035156 C 107.925781 31.042969 108.03125 31.054688 108.117188 31.027344 C 108.304688 30.964844 108.40625 30.722656 108.488281 30.5 C 108.636719 30.085938 108.714844 29.710938 108.789063 29.355469 C 108.875 28.953125 108.953125 28.578125 109.0625 28.046875 C 109.101563 27.867188 109.140625 27.664063 109.046875 27.589844 C 108.984375 27.539063 108.867188 27.539063 108.757813 27.539063 C 108.164063 27.542969 107.699219 27.527344 107.203125 27.527344 C 106.839844 27.527344 106.460938 27.535156 106.066406 27.539063 C 105.882813 27.542969 105.695313 27.542969 105.539063 27.460938 C 105.433594 27.402344 105.34375 27.296875 105.285156 27.1875 C 105.132813 26.894531 105.214844 26.539063 105.3125 26.203125 C 105.496094 25.558594 105.753906 24.984375 105.933594 24.414063 C 106.199219 23.582031 106.308594 22.75 106.625 21.742188 C 106.765625 21.292969 106.945313 20.8125 106.828125 20.53125 C 106.636719 20.0625 105.605469 20.171875 104.785156 20.277344 C 103.742188 20.410156 103.046875 20.535156 102.234375 20.90625 C 101.988281 21.023438 101.730469 21.160156 101.578125 21.367188 C 101.4375 21.5625 101.386719 21.820313 101.335938 22.074219 C 101.167969 22.894531 100.988281 23.667969 100.824219 24.4375 C 100.652344 25.253906 100.492188 26.054688 100.328125 26.949219 C 100.304688 27.082031 100.28125 27.21875 100.210938 27.3125 C 100.074219 27.5 99.765625 27.527344 99.488281 27.539063 C 99.207031 27.550781 98.960938 27.542969 98.71875 27.539063 C 98.128906 27.535156 97.542969 27.566406 96.859375 27.539063 C 96.695313 27.53125 96.523438 27.523438 96.414063 27.589844 C 96.226563 27.699219 96.230469 28.046875 96.203125 28.34375 C 96.136719 29.105469 95.859375 29.589844 95.847656 30.304688 C 95.84375 30.570313 95.871094 30.871094 96.035156 31.023438 C 96.203125 31.171875 96.503906 31.171875 96.773438 31.167969 C 97.410156 31.164063 97.871094 31.15625 98.542969 31.128906 C 98.746094 31.117188 98.96875 31.109375 99.074219 31.191406 C 99.257813 31.335938 99.078125 31.757813 98.96875 32.117188 C 98.824219 32.570313 98.789063 32.914063 98.742188 33.273438 C 98.492188 35.113281 97.902344 37.273438 96.925781 39.0625 C 96.496094 39.855469 95.988281 40.578125 95.375 41.257813 C 94.753906 41.941406 94.023438 42.582031 93.078125 42.714844 C 92.300781 42.820313 91.386719 42.585938 90.949219 42.039063 C 90.542969 41.527344 90.554688 40.734375 90.613281 39.980469 C 90.753906 38.121094 91.160156 36.460938 91.546875 34.945313 C 92.109375 32.742188 92.621094 30.855469 93.75 27.835938 C 93.792969 27.730469 93.832031 27.621094 93.78125 27.578125 C 93.753906 27.550781 93.691406 27.542969 93.632813 27.539063 C 93.238281 27.511719 92.929688 27.53125 92.601563 27.539063 C 92.21875 27.550781 91.800781 27.542969 91.40625 27.539063 C 90.65625 27.535156 89.980469 27.539063 89.144531 27.539063 C 88.976563 27.539063 88.804688 27.539063 88.707031 27.628906 C 88.621094 27.699219 88.585938 27.832031 88.550781 27.964844 "/>
<path style=" stroke:none;fill-rule:nonzero;fill:rgb(73.699951%,2.69928%,10.998535%);fill-opacity:1;" d="M 25.976563 51.214844 C 27.015625 50.050781 28.054688 48.894531 28.796875 47.550781 C 29.148438 46.917969 29.4375 46.242188 29.71875 45.566406 C 30.046875 44.78125 30.371094 43.996094 30.613281 43.179688 C 30.707031 42.851563 30.789063 42.519531 30.875 42.191406 C 31.007813 41.6875 31.144531 41.191406 31.28125 40.671875 C 31.394531 40.261719 31.503906 39.832031 31.605469 39.46875 C 31.664063 39.246094 31.722656 39.042969 31.800781 38.730469 C 31.90625 38.316406 32.042969 37.699219 32.183594 37.792969 C 32.25 37.839844 32.316406 38.039063 32.394531 38.222656 C 32.789063 39.167969 33.472656 39.582031 34.21875 39.890625 C 35.417969 40.386719 36.789063 40.609375 38.144531 40.566406 C 40.203125 40.503906 42.226563 39.816406 43.90625 38.667969 C 45.222656 37.769531 46.328125 36.585938 47.214844 35.257813 C 48.910156 32.726563 49.816406 29.671875 49.929688 26.609375 C 50.003906 24.605469 49.734375 22.59375 48.992188 20.757813 C 48.109375 18.582031 46.5625 16.648438 44.664063 15.246094 C 42.773438 13.847656 40.535156 12.980469 38.222656 12.542969 C 35.960938 12.113281 33.621094 12.09375 31.398438 12.585938 C 29.746094 12.949219 28.15625 13.59375 26.683594 14.4375 C 25.09375 15.34375 23.636719 16.472656 22.429688 17.84375 C 21.09375 19.359375 20.0625 21.164063 19.523438 23.105469 C 19.113281 24.578125 18.992188 26.128906 19.183594 27.652344 C 19.40625 29.375 20.03125 31.066406 20.996094 32.480469 C 21.714844 33.535156 22.625 34.4375 23.945313 34.949219 C 24.183594 35.042969 24.429688 35.121094 24.628906 35.042969 C 24.785156 34.976563 24.910156 34.808594 25.015625 34.644531 C 25.175781 34.402344 25.304688 34.171875 25.421875 33.925781 C 25.6875 33.382813 25.921875 32.773438 25.871094 32.140625 C 25.859375 32.003906 25.832031 31.867188 25.761719 31.757813 C 25.703125 31.664063 25.613281 31.59375 25.523438 31.519531 C 25.015625 31.101563 24.039063 28.535156 24.035156 27.757813 C 24.03125 26.738281 24.03125 25.746094 24.203125 24.765625 C 24.527344 22.910156 25.464844 21.089844 26.808594 19.71875 C 27.832031 18.679688 29.089844 17.902344 30.441406 17.390625 C 32 16.796875 33.6875 16.554688 35.359375 16.597656 C 36.546875 16.625 37.726563 16.796875 38.839844 17.207031 C 40.238281 17.722656 41.527344 18.621094 42.4375 19.796875 C 43.148438 20.710938 43.625 21.792969 43.90625 22.914063 C 44.441406 25.039063 44.265625 27.300781 43.710938 29.449219 C 43.363281 30.796875 42.863281 32.097656 42.097656 33.226563 C 41.386719 34.277344 40.441406 35.179688 39.320313 35.84375 C 38.519531 36.320313 37.625 36.675781 36.703125 36.609375 C 35.75 36.546875 34.765625 36.039063 34.242188 35.261719 C 33.804688 34.617188 33.691406 33.789063 33.710938 32.988281 C 33.75 31.640625 34.179688 30.378906 34.664063 29.15625 C 35.070313 28.136719 35.519531 27.136719 35.75 26.039063 C 35.972656 24.980469 35.992188 23.824219 35.539063 22.867188 C 35.246094 22.253906 34.757813 21.71875 34.160156 21.359375 C 33.5625 21 32.859375 20.8125 32.179688 20.855469 C 31.453125 20.902344 30.753906 21.214844 30.140625 21.648438 C 29.378906 22.195313 28.75 22.9375 28.421875 23.765625 C 28.070313 24.652344 28.066406 25.632813 27.972656 26.644531 C 27.886719 27.554688 27.726563 28.488281 28.15625 29.261719 C 28.332031 29.578125 28.605469 29.867188 28.6875 30.1875 C 28.796875 30.628906 28.546875 31.128906 28.367188 31.613281 C 28.113281 32.320313 28.015625 32.996094 27.894531 33.675781 C 27.570313 35.488281 27.085938 37.335938 26.582031 39.15625 C 26.289063 40.210938 25.992188 41.257813 25.820313 42.328125 C 25.75 42.773438 25.699219 43.226563 25.652344 43.679688 C 25.539063 44.777344 25.453125 45.878906 25.480469 46.976563 C 25.519531 48.394531 25.75 49.804688 25.976563 51.214844 "/>
<path style=" stroke:none;fill-rule:nonzero;fill:rgb(73.699951%,2.69928%,10.998535%);fill-opacity:1;" d="M 95 23 C 95 24.65625 93.65625 26 92 26 C 90.34375 26 89 24.65625 89 23 C 89 21.34375 90.34375 20 92 20 C 93.65625 20 95 21.34375 95 23 "/>
<path style=" stroke:none;fill-rule:nonzero;fill:rgb(73.699951%,2.69928%,10.998535%);fill-opacity:1;" d="M 58 23 C 58 24.65625 56.65625 26 55 26 C 53.34375 26 52 24.65625 52 23 C 52 21.34375 53.34375 20 55 20 C 56.65625 20 58 21.34375 58 23 "/>
</g>
</svg>
